<svg width="24" height="24" viewBox="0 0 24 24" fill="none" xmlns="http://www.w3.org/2000/svg">
    <path d="M9.5 8.5C8.7 8.5 8 9.2 8 10C8 10.8 8.7 11.5 9.5 11.5C10.3 11.5 11 10.8 11 10C11 9.2 10.3 8.5 9.5 8.5ZM14.5 8.5C13.7 8.5 13 9.2 13 10C13 10.8 13.7 11.5 14.5 11.5C15.3 11.5 16 10.8 16 10C16 9.2 15.3 8.5 14.5 8.5ZM12 2C6.5 2 2 6.5 2 12C2 17.5 6.5 22 12 22C17.5 22 22 17.5 22 12C22 6.5 17.5 2 12 2ZM12 20C7.6 20 4 16.4 4 12C4 7.6 7.6 4 12 4C16.4 4 20 7.6 20 12C20 16.4 16.4 20 12 20Z" fill="#409EFF"/>
</svg> 